<?xml version="1.0" encoding="utf-8"?>
<!-- Generator: Adobe Illustrator 22.1.0, SVG Export Plug-In . SVG Version: 6.00 Build 0)  -->
<svg version="1.1" id="Layer_1" xmlns="http://www.w3.org/2000/svg" xmlns:xlink="http://www.w3.org/1999/xlink" x="0px" y="0px"
	 viewBox="0 0 591.8 642.9" style="enable-background:new 0 0 591.8 642.9;" xml:space="preserve">
<style type="text/css">
	.st0{fill:#BC0A0F;stroke:#000000;stroke-width:40;stroke-linecap:round;stroke-linejoin:round;}
</style>
<path class="st0" d="M273.2,41.9c7.5-12.3,11.3-18.4,16.1-20.5c4.2-1.8,9-1.8,13.2,0c4.8,2.1,8.6,8.2,16.1,20.5l66.2,107.9
	c2.8,4.6,4.3,6.9,6.2,8.6c1.7,1.5,3.7,2.6,5.9,3.3c2.4,0.8,5.2,0.8,10.6,0.8l130.2,0.5c15.4,0.1,23.1,0.1,27.5,3.3
	c3.8,2.8,6.3,7.2,6.7,11.9c0.5,5.4-3.5,12-11.4,25.2l-62.8,104.3c-3,5-4.5,7.5-5.1,10.2c-0.5,2.4-0.5,4.8,0,7.2
	c0.6,2.7,2.1,5.2,5.1,10.2l62.8,104.3c7.9,13.2,11.9,19.8,11.4,25.2c-0.4,4.7-2.9,9.1-6.7,11.9c-4.4,3.2-12.1,3.3-27.5,3.3
	l-130.2,0.5c-5.4,0-8.1,0-10.6,0.8c-2.2,0.7-4.2,1.8-5.9,3.3c-1.9,1.7-3.4,4-6.2,8.6l-66.2,107.9c-7.5,12.3-11.3,18.4-16.1,20.5
	c-4.2,1.8-9,1.8-13.2,0c-4.8-2.1-8.6-8.2-16.1-20.5L207,493.2c-2.8-4.6-4.3-6.9-6.2-8.6c-1.7-1.5-3.7-2.6-5.9-3.3
	c-2.4-0.8-5.2-0.8-10.6-0.8L54.2,480c-15.4-0.1-23.1-0.1-27.5-3.3c-3.8-2.8-6.3-7.2-6.7-11.9c-0.5-5.4,3.5-12,11.4-25.2l62.8-104.3
	c3-5,4.5-7.5,5.1-10.2c0.5-2.4,0.5-4.8,0-7.2c-0.6-2.7-2.1-5.2-5.1-10.2L31.4,203.4c-7.9-13.2-11.9-19.8-11.4-25.2
	c0.4-4.7,2.9-9.1,6.7-11.9c4.4-3.2,12.1-3.3,27.5-3.3l130.2-0.5c5.4,0,8.1,0,10.6-0.8c2.2-0.7,4.2-1.8,5.9-3.3
	c1.9-1.7,3.4-4,6.2-8.6L273.2,41.9z"/>
</svg>
