<?xml version="1.0" encoding="utf-8"?>
<!-- Generator: Adobe Illustrator 22.1.0, SVG Export Plug-In . SVG Version: 6.00 Build 0)  -->
<svg version="1.1" id="Layer_1" xmlns="http://www.w3.org/2000/svg" xmlns:xlink="http://www.w3.org/1999/xlink" x="0px" y="0px"
	 width="800px" height="800px" viewBox="0 0 800 800" style="enable-background:new 0 0 800 800;" xml:space="preserve">
<style type="text/css">
	.st0{fill:#EFC081;}
</style>
<title>ionicons-v5-q</title>
<path class="st0" d="M400,575c-4.4,0-8.6-1.1-12.4-3.3L168.8,446.6c-6-3.5-13.6-1.4-17.1,4.6c-1.1,1.9-1.7,4.1-1.7,6.3V575
	c0,9.1,4.9,17.5,12.9,21.9l225,125c7.6,4.2,16.7,4.2,24.3,0l225-125c7.9-4.4,12.9-12.8,12.9-21.9V457.5c0-6.9-5.6-12.5-12.5-12.5
	c-2.2,0-4.4,0.6-6.3,1.7l-218.9,125C408.6,573.9,404.4,575,400,575z"/>
<path class="st0" d="M774.9,297.7c0,0,0-0.1,0-0.2c-0.8-8-5.5-15.2-12.5-19.2l-350-200c-7.7-4.4-17.1-4.4-24.8,0l-350,200
	c-12,6.9-16.1,22.1-9.3,34.1c2.2,3.9,5.4,7.1,9.3,9.3l350,200c7.7,4.4,17.1,4.4,24.8,0l307.9-176c1.5-0.9,3.4-0.4,4.3,1.1
	c0.3,0.5,0.4,1,0.4,1.6v225.8c0,13.5,10.3,25,23.8,25.7c13.8,0.7,25.5-10,26.2-23.8c0-0.4,0-0.8,0-1.2V300
	C775,299.2,775,298.4,774.9,297.7z"/>
</svg>
